# xmcd CD database file
#
# Track frame offsets:
#	150
#	13619
#	23657
#	33187
#	46383
#	54229
#	66980
#	95633
#	111439
#	131541
#	144936
#	156954
#	172635
#	187421
#	202668
#	212970
#	228645
#	242610
#
# Disc length: 3493 seconds
#
# Revision: 0
# Processed by: cddbd v1.5.1PL0 Copyright (c) Steve Scherf et al.
# Submitted via: CDex 1.51
#
DISCID=f40da312
DTITLE=Big Band Franz Schober - Volume 1
DYEAR=2000
DGENRE=Jazz
TTITLE0=Sing, Sing, Sing
TTITLE1=Hora Staccato
TTITLE2=Big Spender
TTITLE3=American Patrol
TTITLE4=Tribute to Benny
TTITLE5=A wonderful Day like Today
TTITLE6=Children of Sanchez
TTITLE7=Somewhere
TTITLE8=Over the Rainbow
TTITLE9=Steirischer Brauch
TTITLE10=Bad Bad Leroy Brown
TTITLE11=On Broadway
TTITLE12=Four Brothers
TTITLE13=I'm getting senitmental over you
TTITLE14=Trumpet Blues
TTITLE15=New York
TTITLE16=In the Mood
TTITLE17=My Way
EXTD=YEAR: 2000
EXTT0=
EXTT1=
EXTT2=
EXTT3=
EXTT4=
EXTT5=
EXTT6=
EXTT7=
EXTT8=
EXTT9=
EXTT10=
EXTT11=
EXTT12=
EXTT13=
EXTT14=
EXTT15=
EXTT16=
EXTT17=
PLAYORDER=
